<svg aria-hidden="true" style="position: absolute; width: 0; height: 0; overflow: hidden;" version="1.1" xmlns="http://www.w3.org/2000/svg" xmlns:xlink="http://www.w3.org/1999/xlink">
<defs>
<symbol id="cart" viewBox="0 0 32 32">
<title>cart</title>
<path d="M283.616 58.608h0.016l-39.6 88c-1.952 4.336-6.176 7.424-11.152 7.76v0l-114.048 7.6 6.592 18.816h124.176c14.576 0 26.4 11.824 26.4 26.416 0 14.576-11.824 26.4-26.4 26.4s-26.4-11.824-26.4-26.4h-123.2c0 14.576-11.824 26.4-26.4 26.4s-26.4-11.824-26.4-26.4c0-14.592 11.824-26.416 26.4-26.416h23.856l-50.816-145.184h-30.24c-7.296 0-13.2-5.92-13.2-13.2 0-7.296 5.904-13.2 13.2-13.2h39.6c5.76 0 10.608 3.712 12.416 8.848l0.048-0.016 7.68 21.968h195.456c7.296 0 13.2 5.904 13.2 13.2 0 1.92-0.432 3.744-1.184 5.408zM85.392 66.4l24.4 69.712 113.424-7.568 27.968-62.144h-165.792z"></path>
</symbol>
<symbol id="glass" viewBox="0 0 32 32">
<title>glass</title>
<path d="M277.072 239.728c4.768 4.768 7.728 11.376 7.728 18.672 0 14.576-11.824 26.4-26.4 26.4-7.296 0-13.888-2.96-18.672-7.744v0l-77.376-77.36c-15.712 9.28-33.984 14.704-53.552 14.704-58.32 0-105.6-47.28-105.6-105.6s47.28-105.6 105.6-105.6c58.32 0 105.6 47.28 105.6 105.6 0 19.568-5.424 37.84-14.704 53.552l77.376 77.376zM108.8 29.584c-43.744 0-79.2 35.472-79.2 79.216s35.456 79.2 79.2 79.2c43.744 0 79.2-35.456 79.2-79.2s-35.456-79.216-79.2-79.216z"></path>
</symbol>
</defs>
</svg>
