<svg aria-hidden="true" style="position: absolute; width: 0; height: 0; overflow: hidden;" version="1.1" xmlns="http://www.w3.org/2000/svg" xmlns:xlink="http://www.w3.org/1999/xlink">
<defs>
<symbol id="facebook" viewBox="0 0 21 32">
<title>facebook</title>
<path d="M128.949 2.123c0 15.744 0 43.957 0 43.957s-32.395-3.232-40.512 9.184c-4.437 6.784-1.803 26.667-2.197 40.939 14.144 0 28.832 0 42.976 0-3.627 16.683-6.229 27.989-8.907 42.432-12.235 0-34.304 0-34.304 0v136.576c0 0-40.501 0-59.541 0 0.011-42.101-0.011-91.221 0-136.043-9.248 0-16.085 0-25.333 0 0-15.744 0-27.211 0-42.965 8.971 0 16.075 0 25.056 0 1.28-31.424 1.76-62.549 17.376-78.4 17.536-17.824 34.272-15.68 85.387-15.68z"></path>
</symbol>
<symbol id="instagram" viewBox="0 0 32 32">
<title>instagram</title>
<path d="M242.133 275.2h-204.8c-18.848 0-34.133-15.285-34.133-34.144v-204.789c0-18.859 15.285-34.144 34.133-34.144h204.8c18.848 0 34.133 15.285 34.133 34.144v204.789c0 18.859-15.285 34.144-34.133 34.144zM139.733 85.749c-21.291 0-39.584 12.608-47.979 30.72h-0.053c-0.085 0.192-0.149 0.395-0.235 0.587-0.501 1.12-0.939 2.272-1.365 3.424-0.203 0.565-0.427 1.109-0.608 1.664-0.395 1.195-0.715 2.4-1.013 3.627-0.149 0.565-0.32 1.131-0.448 1.707-0.277 1.291-0.469 2.603-0.651 3.925-0.075 0.533-0.181 1.056-0.245 1.6-0.192 1.856-0.309 3.744-0.309 5.664 0 29.216 23.691 52.896 52.907 52.896s52.907-23.68 52.907-52.896c0-1.92-0.117-3.808-0.309-5.664-0.064-0.544-0.171-1.067-0.245-1.6-0.181-1.323-0.373-2.635-0.651-3.925-0.128-0.576-0.299-1.141-0.448-1.707-0.299-1.227-0.619-2.432-1.013-3.627-0.181-0.555-0.405-1.099-0.608-1.664-0.427-1.152-0.864-2.304-1.365-3.424-0.085-0.192-0.149-0.395-0.235-0.587h-0.053c-8.395-18.112-26.688-30.72-47.979-30.72zM245.547 46.496c0-7.541-6.112-13.643-13.653-13.643h-27.307c-7.541 0-13.653 6.101-13.653 13.643v27.317c0 7.541 6.112 13.653 13.653 13.653h27.307c7.541 0 13.653-6.112 13.653-13.653v-27.317zM245.547 116.469h-25.173c1.941 7.072 2.987 14.517 2.987 22.197 0 46.187-37.44 83.616-83.627 83.616s-83.627-37.429-83.627-83.616c0-7.68 1.045-15.125 2.987-22.197h-25.173v114.347c0 7.552 6.112 13.664 13.653 13.664h184.32c7.541 0 13.653-6.112 13.653-13.664v-114.347z"></path>
</symbol>
<symbol id="pinterest" viewBox="0 0 32 32">
<title>pinterest</title>
<path d="M96.544 179.776c-2.229 8.885-4.48 18.197-6.805 27.307-2.293 8.981-4.32 18.091-7.659 26.347-5.536 13.664-12.565 26.869-21.792 37.557-6.133 7.115-4.832 4.277-6.677 3.893-1.408-0.299-1.525-1.675-1.803-3.68-1.504-10.859-0.48-23.413 0.075-35.616 0.64-13.909 3.563-25.472 6.283-37.024 5.163-22.016 10.091-43.595 15.307-65.749 0.341-1.472 1.28-3.904 0.96-4.747-2.368-6.155-3.904-11.68-4.576-18.144-0.779-7.413-0.181-14.336 1.483-20.725 2.955-11.285 9.739-21.28 20.203-24.939 6.656-2.304 14.027-1.259 18.507 1.408 4.608 2.763 7.776 7.115 9.248 13.291 1.579 6.56 0.416 14.411-0.853 20.171-2.848 13.003-6.592 22.763-9.995 35.307-1.685 6.219-3.595 12.608-2.016 19.328 1.451 6.165 4.661 10.411 9.035 13.6 4.544 3.307 9.92 5.109 17.333 4.853 13.099-0.459 22.197-8.832 28.277-16.725 9.739-12.64 15.627-29.696 17.867-49.984 0.715-6.549 1.248-14.069 0.747-21.483-0.939-13.696-5.216-24.715-12.021-33.248-6.464-8.139-15.637-14.603-26.795-18.251-11.061-3.605-26.368-4.811-39.968-2.485-24.725 4.235-42.155 18.283-52.427 37.685-5.376 10.155-8.928 21.835-8.928 36.373 0 11.211 2.763 19.893 7.232 26.667 1.419 2.144 3.499 3.915 4.885 6.368 1.973 3.477-0.299 8.651-1.269 12.416-1.173 4.533-1.301 10.795-6.592 10.901-2.197 0.043-4.949-1.557-6.805-2.592-13.92-7.691-22.368-21.685-25.835-39.829-2.112-11.029-2.101-23.883 0-34.539 2.027-10.315 5.803-19.819 9.995-27.531 8.683-16.032 21.408-28.853 36.896-38.005 11.904-7.040 25.333-11.979 41.675-14.357 5.419-0.789 11.029-1.12 17.12-1.408 17.792-0.832 33.963 3.2 46.144 8.64 12.853 5.749 23.115 13.397 31.787 22.891 8.939 9.76 15.445 21.109 19.563 35.296 2.155 7.381 4.245 15.275 4.245 24.395 0 9.152-1.931 17.205-3.285 25.259-5.056 30.165-19.403 54.837-40.939 68.885-5.216 3.392-11.531 6.539-18.709 8.629-7.115 2.069-15.232 3.627-23.925 3.019-8.437-0.576-15.349-2.869-21.152-6.155-5.76-3.253-10.603-7.243-14.037-13.269z"></path>
</symbol>
<symbol id="twitter" viewBox="0 0 43 32">
<title>twitter</title>
<path d="M186.805 6.411c21.696-0.384 33.248 7.52 44.277 17.568 9.365-0.8 21.536-6.027 28.704-9.675 2.315-1.259 4.64-2.539 6.965-3.808-4.096 11.061-9.643 19.723-18.176 26.304-1.899 1.451-3.776 3.424-6.155 4.352 0 0.043 0 0.096 0 0.139 12.16-0.117 22.187-5.611 31.712-8.587 0 0.043 0 0.096 0 0.139-5.003 7.947-11.776 16.021-18.997 21.803-2.912 2.315-5.835 4.629-8.747 6.944 0.16 12.875-0.192 25.163-2.592 35.979-13.995 62.88-51.072 105.568-109.749 123.861-21.077 6.56-55.125 9.259-79.275 3.264-11.968-2.965-22.784-6.325-32.928-10.763-5.643-2.464-10.869-5.131-15.861-8.181-1.643-0.992-3.275-1.995-4.917-2.987 5.44 0.16 11.819 1.664 17.899 0.672 5.515-0.885 10.912-0.651 16-1.76 12.672-2.784 23.925-6.464 33.611-12.139 4.704-2.752 11.84-5.973 15.179-9.941-6.293 0.107-12-1.355-16.672-2.997-18.123-6.4-28.672-18.165-35.541-35.84 5.493 0.608 21.312 2.037 25.013-1.088-6.912-0.384-13.557-4.384-18.315-7.36-14.581-9.12-26.464-24.416-26.379-47.957 1.92 0.907 3.829 1.813 5.739 2.72 3.669 1.547 7.392 2.368 11.755 3.275 1.845 0.384 5.536 1.461 7.659 0.672-0.096 0-0.181 0-0.277 0-2.816-3.275-7.413-5.461-10.251-8.992-9.355-11.616-18.112-29.504-12.576-50.816 1.408-5.408 3.637-10.176 6.016-14.581 0.096 0.043 0.181 0.085 0.277 0.128 1.088 2.283 3.52 3.957 5.056 5.867 4.779 5.92 10.667 11.243 16.672 15.936 20.459 16 38.88 25.835 68.469 33.109 7.509 1.856 16.181 3.264 25.152 3.275-2.517-7.328-1.707-19.2 0.267-26.293 4.992-17.856 15.819-30.709 31.712-37.611 3.797-1.643 8.011-2.848 12.437-3.819 2.283-0.267 4.555-0.544 6.837-0.811z"></path>
</symbol>
</defs>
</svg>
